<svg width="512" height="512" viewBox="0 0 512 512" fill="none" xmlns="http://www.w3.org/2000/svg">
<g clip-path="url(#clip0_232_34)">
<path d="M14.625 438.313C14.5966 439.01 14.5683 439.707 14.5391 440.426C15.7776 447.343 19.9113 452.501 24.8066 457.293C25.3763 457.866 25.9459 458.439 26.5328 459.03C28.3977 460.902 30.2765 462.76 32.1562 464.617C33.4645 465.923 34.772 467.23 36.0787 468.537C38.8095 471.265 41.5469 473.986 44.2896 476.701C47.8037 480.181 51.3044 483.675 54.8008 487.172C57.4956 489.867 60.1957 492.556 62.8975 495.243C64.1905 496.53 65.4822 497.818 66.7728 499.107C68.5747 500.904 70.383 502.695 72.1934 504.484C72.7244 505.016 73.2554 505.548 73.8025 506.096C78.0494 510.27 80.9579 512.285 86.9375 512.313C91.1034 512.208 93.8129 511.898 97 509C99.6544 505.064 100.352 501.745 100.496 497.125C98.9069 490.318 92.5007 485.241 87.7344 480.539C86.941 479.749 86.1476 478.958 85.3301 478.144C82.8081 475.633 80.2792 473.129 77.75 470.625C76.0334 468.919 74.3172 467.212 72.6016 465.504C68.4063 461.331 64.2054 457.163 60 453C61.1204 452.93 62.2409 452.86 63.3953 452.788C102.425 450.32 140.678 446.46 178 434C178.874 433.709 179.749 433.418 180.649 433.118C235.653 414.548 283.737 378.404 310.25 325.938C319.31 307.443 319.31 307.443 320.965 297.707C322.504 288.009 322.504 288.009 328.045 280.317C333.175 277.387 338.705 275.611 344.327 273.867C348.177 272.618 351.791 270.996 355.438 269.25C356.109 268.934 356.78 268.617 357.472 268.291C383.768 255.593 408.013 238.236 429 218C429.643 217.385 430.285 216.769 430.947 216.135C470.069 178.505 495.951 127.275 497.203 72.3751C497.379 55.7259 496.621 39.4714 494 23.0001C493.861 22.1186 493.722 21.237 493.578 20.3287C491.238 6.39262 491.238 6.39261 486.875 1.93761C482.573 -0.880942 477.943 -0.839166 473 0.000108302C469.83 1.28144 468.422 2.52013 466.188 5.06261C463.246 12.34 465.274 19.828 466.785 27.2687C476.051 74.6399 466.288 123.383 439.798 163.63C434.405 171.536 428.38 178.876 422 186C421.498 186.564 420.996 187.128 420.479 187.709C414.661 194.214 408.791 200.493 402 206C400.971 206.864 399.943 207.729 398.914 208.594C378.285 225.722 355.354 238.964 331 250C330.985 249.196 330.971 248.392 330.956 247.564C330.632 231.546 330.215 215.75 327 200C326.84 199.2 326.681 198.4 326.517 197.576C319.455 163.34 301.327 130.663 272.5 110.063C247.092 93.5692 219.551 86.0901 189.457 91.961C172.497 95.6676 157.411 104.154 144 115C143.197 115.649 142.394 116.297 141.566 116.965C120.62 134.716 107.771 161.199 105.273 188.375C103.54 213.197 110.631 238.688 126.98 257.746C127.647 258.49 128.313 259.234 129 260C129.697 260.816 130.395 261.632 131.113 262.473C153.157 287.805 181.087 298.714 214 301C241.185 302.333 267.653 298.283 294 292C292.157 298.715 289.893 304.977 286.875 311.25C286.482 312.071 286.089 312.891 285.683 313.737C262.727 360.638 219.355 390.794 171.125 407.75C135.175 419.845 97.7082 423.906 60 425C66.8777 417.514 73.8306 410.119 81.0469 402.957C81.564 402.444 82.0812 401.93 82.614 401.401C85.2031 398.833 87.7995 396.272 90.4045 393.721C91.3701 392.767 92.3355 391.813 93.3008 390.859C94.1584 390.019 95.016 389.178 95.8997 388.312C99.4784 384.373 100.467 381.436 100.316 376.027C99.629 371.623 97.0649 368.888 93.75 366.125C90.1358 364.647 86.85 364.256 83 365C78.61 367.265 75.3167 370.393 71.8645 373.861C71.272 374.448 70.6795 375.036 70.0691 375.641C68.1203 377.576 66.179 379.518 64.2383 381.461C62.8828 382.813 61.5271 384.164 60.1712 385.515C57.3343 388.345 54.5012 391.178 51.6707 394.014C48.0442 397.646 44.4064 401.267 40.7654 404.885C37.9644 407.671 35.1703 410.464 32.3782 413.259C31.0397 414.597 29.6988 415.933 28.3556 417.266C26.4789 419.131 24.612 421.004 22.7473 422.88C22.192 423.428 21.6366 423.976 21.0644 424.54C16.9317 428.73 14.7332 432.394 14.625 438.313ZM161.965 134.348C178.5 121.558 198.16 114.307 219.309 116.41C244.383 120.417 265.166 134.574 280 155C300.346 184.05 309.061 224.978 303 260C302.055 262.467 302.055 262.467 298.258 263.332C296.551 263.838 294.839 264.331 293.125 264.813C292.206 265.073 291.287 265.334 290.341 265.602C278.405 268.864 266.215 271.068 254 273C253.284 273.114 252.569 273.228 251.831 273.346C231.512 276.081 207.645 276.019 188 270C186.805 269.649 185.61 269.299 184.379 268.938C163.578 261.882 148.533 244.952 138.445 226.094C122.678 193.626 135.79 156.989 161.965 134.348Z" fill="#FF7900"/>
</g>
<defs>
<clipPath id="clip0_232_34">
<rect width="512" height="512" fill="white" transform="matrix(0 1 1 0 0 0)"/>
</clipPath>
</defs>
</svg>
