<svg width="512" height="512" viewBox="0 0 512 512" fill="none" xmlns="http://www.w3.org/2000/svg">
<g clip-path="url(#clip0_232_30)">
<path d="M135 20.9996C137.418 23.2516 137.944 24.6718 138.5 27.9371C137.816 32.121 136.2 33.2542 133 35.9996C130.436 37.4491 127.769 38.594 125.062 39.7496C82.6493 58.8399 49.3024 98.936 32.8848 141.918C28.4476 154.064 24.7162 166.16 22.9995 179C22.8636 179.976 22.8636 179.976 22.7249 180.972C18.3617 215.29 25.1036 249.844 46.1443 277.685C64.764 301.518 90.82 315.736 120.785 319.507C134.424 320.838 148.314 320.225 162 320C162.039 319.433 162.079 318.866 162.12 318.282C165.193 276.097 179.131 235.443 204 201C204.453 200.36 204.906 199.721 205.373 199.062C212.28 189.342 219.8 180.462 228.123 171.928C230.08 169.917 232.016 167.886 233.953 165.855C251.219 147.95 270.244 134.633 295.937 133.687C310.778 133.858 324.548 138.616 335.437 148.937C343.849 158.062 349.669 170.452 350 183C350.05 184.073 350.1 185.147 350.152 186.254C351.06 221.09 333.111 251.66 309.906 276.312C302.987 283.508 295.591 289.835 287.597 295.803C286.178 296.866 284.775 297.951 283.375 299.039C258.977 317.566 219.544 341 188 341C196.486 380.912 214.405 416.412 249.312 439.711C267.737 451.337 287.411 458.912 309 462C310.256 462.195 310.256 462.195 311.539 462.394C347.968 467.089 385.823 456.127 415.25 434.562C425.819 426.376 435.876 417.173 444.5 406.937C447.204 403.76 447.742 403.143 451.75 402.687C455.857 403.082 457.829 404.405 461 407C462.919 409.503 463.029 410.602 462.796 413.761C457.32 436.015 424.12 458.621 405.781 469.995C370.689 491.014 330.658 496.813 291.013 487.228C245.997 475.589 205.764 444.582 182.187 404.687C171.952 386.706 165.822 367.469 163 347C161.994 347.015 160.988 347.031 159.952 347.047C135.774 347.391 112.275 347.495 88.9995 340C88.3638 339.795 87.7282 339.59 87.0732 339.379C71.611 334.288 58.229 326.785 45.9995 316C45.3692 315.501 44.7388 315.002 44.0894 314.488C18.3078 293.992 4.73969 256.528 0.405276 224.972C-0.346242 217.615 -0.348139 210.264 -0.312985 202.875C-0.31083 202.058 -0.308675 201.242 -0.306455 200.401C-0.254196 188.059 0.150918 176.061 2.99951 164C3.20883 163.113 3.41814 162.227 3.63379 161.314C14.7781 115.545 39.04 74.4692 76.9995 45.9996C78.0308 45.2236 79.062 44.4476 80.1245 43.648C92.5326 34.6902 105.884 27.7356 120.375 22.8121C121.26 22.5084 122.146 22.2046 123.058 21.8917C130.859 19.3915 130.859 19.3915 135 20.9996ZM238.725 197.555C236.572 200.396 234.456 203.261 232.36 206.144C231.212 207.71 230.028 209.249 228.835 210.781C208.324 237.454 185.528 280.366 187 315C222.698 307.904 258.178 287.572 284.726 263.086C286.838 261.147 288.999 259.289 291.187 257.437C294.417 254.613 297.26 251.624 300.023 248.343C301.52 246.568 303.052 244.823 304.601 243.093C316.797 229.359 326.208 214.097 325.386 195.097C324.361 181.487 319.353 167.264 309 158C286.112 142.894 251.454 181.185 238.725 197.555Z" fill="#FF7900"/>
<path d="M490.562 369.687C491.789 369.658 493.015 369.628 494.278 369.597C505.284 369.526 505.284 369.526 510 374C513.398 379.097 512.39 385.208 512.375 391.187C512.375 391.891 512.376 392.595 512.376 393.32C512.267 451.685 512.267 451.685 498.312 466.937C494.199 469.499 490.841 470.447 486 470C482.588 468.185 481.373 466.764 479.688 463.312C478.138 455.849 479.192 449.475 481.25 442.25C485.484 426.217 486.453 409.463 488 393C460.746 392.621 460.746 392.621 433.586 394.562C419.552 396.086 419.552 396.086 414.875 392.812C412.967 389.95 412 388.43 412 385C412.875 382.375 412.875 382.375 415 380C421.019 377.306 427.612 376.115 434.062 374.937C434.978 374.768 435.893 374.598 436.836 374.423C444.866 372.964 452.879 371.812 461 371C462.101 370.888 463.202 370.776 464.336 370.66C473.059 369.932 481.813 369.805 490.562 369.687Z" fill="#FF7900"/>
</g>
<defs>
<clipPath id="clip0_232_30">
<rect width="512" height="512" fill="white"/>
</clipPath>
</defs>
</svg>
