<svg width="512" height="512" viewBox="0 0 512 512" fill="none" xmlns="http://www.w3.org/2000/svg">
<g clip-path="url(#clip0_232_54)">
<path d="M341.062 100.251C350.486 105.677 358.194 113.675 365.144 121.946C371.733 129.242 379.526 135.547 387.163 141.696C390.255 144.209 393.284 146.787 396.312 149.376C400.77 153.177 405.309 156.847 409.937 160.438C415.417 164.693 420.715 169.121 425.96 173.661C429.43 176.663 432.935 179.61 436.499 182.501C445.819 190.078 454.9 197.935 463.792 206.009C465.736 207.763 467.703 209.481 469.687 211.188C503.354 240.613 503.354 240.613 507.999 256.001C507.869 260.338 507.488 262.421 504.663 265.774C503.666 266.66 502.652 267.526 501.624 268.376C501.089 268.843 500.553 269.31 500.001 269.791C495.577 273.616 491.015 277.279 486.46 280.946C483.684 283.265 481.169 285.741 478.656 288.337C476.314 290.69 473.805 292.826 471.292 294.993C468.53 297.412 465.825 299.89 463.124 302.376C459.434 305.771 455.732 309.152 451.999 312.501C447.792 316.277 443.621 320.092 439.458 323.917C436.343 326.777 433.211 329.616 430.062 332.438C426.131 335.964 422.248 339.537 418.374 343.126C412.614 348.455 406.76 353.648 400.788 358.739C399.588 359.764 398.387 360.789 397.187 361.813C396.581 362.331 395.975 362.848 395.35 363.381C391.609 366.586 387.938 369.853 384.312 373.188C379.562 377.538 374.649 381.627 369.637 385.668C367.776 387.183 365.932 388.718 364.089 390.255C359.753 393.87 355.383 397.442 350.999 401.001C350.274 401.595 349.549 402.19 348.801 402.802C346.696 404.515 344.571 406.199 342.437 407.876C341.807 408.394 341.177 408.912 340.528 409.446C335.854 413.049 332.881 413.597 326.999 413.001C322.67 411.591 321.291 409.056 319.249 405.188C315.839 398.228 315.807 391.41 315.812 383.813C315.811 382.82 315.811 381.826 315.81 380.802C315.872 371.657 316.535 362.59 317.283 353.479C317.919 345.623 318.262 337.886 317.999 330.001C315.874 330.645 313.749 331.291 311.624 331.938C309.849 332.478 309.849 332.478 308.038 333.028C305.12 333.877 305.12 333.877 302.999 335.001C301.125 335.302 299.245 335.57 297.363 335.821C290.188 336.89 283.223 338.524 276.214 340.35C274.174 340.879 272.131 341.392 270.087 341.903C262.224 343.845 262.224 343.845 254.863 347.134C251.684 348.916 248.916 349.38 245.309 349.804C236.971 351.011 229.186 353.485 221.179 356.024C219.566 356.528 217.953 357.031 216.339 357.533C212.938 358.592 209.538 359.656 206.139 360.724C197.308 363.498 188.464 366.231 179.621 368.966C178.754 369.234 177.887 369.502 176.993 369.779C139.153 381.483 100.614 393.129 61.4174 399.331C55.2001 400.361 50.53 401.985 44.9994 405.001C42.0619 405.313 42.0619 405.313 39.9994 405.001C39.6694 404.671 39.3394 404.341 38.9994 404.001C36.2174 404.094 33.4624 404.245 30.6869 404.438C23.4465 404.899 16.257 405.129 8.99943 405.001C8.34808 403.441 7.7036 401.878 7.06193 400.313C6.70228 399.443 6.34263 398.573 5.97208 397.677C3.79194 391.679 3.31838 385.235 2.49943 378.938C2.30413 377.478 2.30413 377.478 2.10489 375.987C1.71371 372.994 1.34914 369.999 0.999426 367.001C0.897187 366.144 0.794948 365.287 0.689611 364.404C-0.416291 353.5 -0.195316 342.51 -0.188074 331.563C-0.188799 330.432 -0.189525 329.301 -0.190272 328.135C-0.189222 313.14 0.173372 298.222 0.999426 283.251C2.1271 262.51 2.22951 241.778 2.24619 221.012C2.24938 218.417 2.25645 215.822 2.26456 213.227C2.31533 194.932 2.08679 176.814 0.452551 158.577C-0.917646 143.045 -2.06735 124.525 6.99943 111.001C11.6362 106.802 17.5061 103.19 23.8567 102.847C34.5515 103.555 44.4357 106.194 54.726 109.056C56.6724 109.586 58.6191 110.116 60.5661 110.644C64.737 111.779 68.9056 112.922 73.0725 114.071C79.7326 115.908 86.3974 117.727 93.0631 119.543C101.208 121.763 109.352 123.988 117.495 126.217C131.989 130.185 146.493 134.118 161.003 138.028C162.053 138.311 163.103 138.594 164.185 138.886C168.396 140.021 172.607 141.155 176.818 142.289C188.17 145.347 199.521 148.411 210.871 151.478C211.872 151.748 212.874 152.019 213.906 152.297C247.947 161.494 281.974 170.744 315.999 180.001C315.995 179.41 315.991 178.819 315.986 178.21C315.941 171.979 315.911 165.749 315.89 159.518C315.88 157.202 315.866 154.886 315.849 152.57C315.602 118.971 315.602 118.971 320.999 104.001C321.659 104.001 322.319 104.001 322.999 104.001C323.34 103.073 323.34 103.073 323.687 102.126C327.474 95.9952 335.556 97.2895 341.062 100.251ZM41.9994 117.001C40.2095 118.742 40.2095 118.742 38.7494 121.001C37.9683 122.115 37.9683 122.115 37.1713 123.251C36.5912 124.117 36.5912 124.117 35.9994 125.001C40.3071 123.435 44.0611 121.318 47.9994 119.001C47.3394 118.341 46.6794 117.681 45.9994 117.001C44.6794 117.001 43.3594 117.001 41.9994 117.001ZM344.999 121.001C344.339 122.321 343.679 123.641 342.999 125.001C344.319 124.341 345.639 123.681 346.999 123.001C346.339 122.341 345.679 121.681 344.999 121.001ZM53.6244 129.438C52.8884 130.158 52.1523 130.878 51.394 131.62C49.5799 133.399 47.7833 135.192 45.9994 137.001C46.9894 137.496 46.9894 137.496 47.9994 138.001C50.3748 136.903 50.3748 136.903 53.0072 135.255C53.9934 134.665 54.9795 134.075 55.9955 133.468C57.0281 132.839 58.0606 132.211 59.1244 131.563C60.1647 130.939 61.205 130.314 62.2768 129.671C64.8554 128.121 67.4293 126.564 69.9994 125.001C68.1018 122.851 68.1018 122.851 65.3979 121.911C59.9313 122.056 57.3187 125.687 53.6244 129.438ZM94.2065 134.626C93.4943 135.167 92.782 135.709 92.0483 136.267C90.9413 137.125 90.9413 137.125 89.8119 138.001C89.0623 138.573 88.3127 139.146 87.5404 139.735C85.6884 141.151 83.8418 142.573 81.9994 144.001C82.9894 144.496 82.9894 144.496 83.9994 145.001C86.0802 144.098 86.0802 144.098 88.351 142.692C89.2018 142.193 90.0526 141.693 90.9291 141.179C91.8186 140.646 92.708 140.113 93.6244 139.563C94.5216 139.034 95.4188 138.505 96.3432 137.96C98.5663 136.647 100.785 135.327 102.999 134.001C102.339 133.341 101.679 132.681 100.999 132.001C97.5225 132.001 96.8865 132.568 94.2065 134.626ZM115.999 137.001C115.009 138.486 115.009 138.486 113.999 140.001C115.649 139.341 117.299 138.681 118.999 138.001C118.009 137.671 117.019 137.341 115.999 137.001ZM362.999 138.001C359.699 141.301 356.399 144.601 352.999 148.001C353.989 148.496 353.989 148.496 354.999 149.001C357.943 147.549 357.943 147.549 361.124 145.563C362.22 144.905 363.316 144.246 364.445 143.567C365.288 143.05 366.131 142.534 366.999 142.001C365.679 140.681 364.359 139.361 362.999 138.001ZM17.3744 147.001C16.2607 147.661 15.1469 148.321 13.9994 149.001C13.9994 150.651 13.9994 152.301 13.9994 154.001C15.1284 153.068 16.2524 152.13 17.3744 151.188C18.0009 150.666 18.6274 150.144 19.2729 149.606C21.2215 147.919 21.2215 147.919 22.9994 145.001C20.5364 145.001 19.4788 145.754 17.3744 147.001ZM142.078 145.997C141.474 146.473 140.871 146.948 140.249 147.438C139.636 147.912 139.022 148.385 138.39 148.872C137.702 149.431 137.702 149.431 136.999 150.001C137.989 150.496 137.989 150.496 138.999 151.001C141.253 150.007 141.253 150.007 143.624 148.563C144.442 148.09 145.259 147.617 146.101 147.13C146.727 146.757 147.354 146.385 147.999 146.001C145.513 145.082 144.485 144.749 142.078 145.997ZM157.113 151.458C155.963 152.254 155.963 152.254 154.791 153.066C153.973 153.642 153.155 154.219 152.312 154.813C150.598 156.006 148.885 157.199 147.171 158.392C146.308 158.996 145.445 159.599 144.556 160.222C142.158 161.89 139.748 163.537 137.328 165.173C136.607 165.662 135.886 166.15 135.143 166.654C133.789 167.571 132.434 168.485 131.077 169.397C127.724 171.682 124.752 174.014 121.999 177.001C125.642 175.623 128.993 173.99 132.394 172.095C133.425 171.52 134.457 170.945 135.519 170.353C136.606 169.742 137.692 169.131 138.812 168.501C139.922 167.878 141.033 167.255 142.177 166.614C150.951 161.661 159.541 156.472 167.999 151.001C163.528 148.534 161.29 148.536 157.113 151.458ZM332.999 153.001C332.999 153.991 332.999 154.981 332.999 156.001C333.659 155.011 334.319 154.021 334.999 153.001C334.339 153.001 333.679 153.001 332.999 153.001ZM378.653 156.042C377.272 156.859 377.272 156.859 375.863 157.692C374.821 158.301 373.78 158.91 372.706 159.537C371.026 160.54 371.026 160.54 369.312 161.563C368.154 162.247 366.995 162.93 365.835 163.612C364.04 164.668 362.246 165.726 360.454 166.787C356.331 169.229 352.181 171.616 348.011 173.978C346.916 174.602 345.82 175.226 344.692 175.87C342.596 177.064 340.496 178.251 338.391 179.431C337.447 179.974 336.503 180.516 335.531 181.075C334.701 181.545 333.872 182.015 333.017 182.5C330.803 184.147 330.002 185.46 328.999 188.001C332.389 186.71 335.521 185.243 338.675 183.454C339.575 182.945 340.474 182.437 341.401 181.913C342.361 181.364 343.322 180.816 344.312 180.251C345.31 179.683 346.308 179.116 347.336 178.531C350.56 176.693 353.78 174.848 356.999 173.001C358.113 172.363 359.227 171.725 360.374 171.068C363.67 169.177 366.96 167.278 370.249 165.376C371.793 164.489 371.793 164.489 373.368 163.584C374.324 163.028 375.28 162.472 376.265 161.899C377.53 161.167 377.53 161.167 378.821 160.42C380.838 159.106 382.382 157.773 383.999 156.001C381.075 154.652 381.075 154.652 378.653 156.042ZM186.32 164.47C185.101 165.302 185.101 165.302 183.857 166.151C181.27 167.922 178.697 169.711 176.124 171.501C174.37 172.707 172.615 173.911 170.859 175.114C166.562 178.062 162.277 181.025 157.999 184.001C158.659 184.331 159.319 184.661 159.999 185.001C162.73 183.742 162.73 183.742 165.828 181.88C166.413 181.542 166.998 181.205 167.602 180.857C169.489 179.767 171.369 178.665 173.249 177.563C174.47 176.855 175.692 176.147 176.913 175.44C179.362 174.023 181.807 172.601 184.251 171.177C190.146 167.748 196.074 164.376 201.999 161.001C201.504 160.011 201.504 160.011 200.999 159.001C194.715 158.127 191.226 161.023 186.32 164.47ZM391.999 163.001C391.669 163.661 391.339 164.321 390.999 165.001C391.659 165.001 392.319 165.001 392.999 165.001C392.669 164.341 392.339 163.681 391.999 163.001ZM206.249 169.313C204.992 170.167 204.992 170.167 203.709 171.037C201.844 172.303 199.984 173.576 198.128 174.856C194.668 177.228 191.182 179.557 187.687 181.876C187.07 182.286 186.452 182.695 185.816 183.117C184.576 183.941 183.336 184.764 182.096 185.586C179.128 187.559 176.165 189.539 173.203 191.52C172.199 192.192 171.195 192.863 170.161 193.555C169.091 194.271 169.091 194.271 167.999 195.001C168.659 195.331 169.319 195.661 169.999 196.001C172.075 195.134 172.075 195.134 174.382 193.747C175.746 192.97 175.746 192.97 177.137 192.176C178.123 191.603 179.109 191.029 180.124 190.438C181.644 189.566 181.644 189.566 183.194 188.675C185.352 187.433 187.507 186.188 189.66 184.938C192.997 183.002 196.341 181.079 199.687 179.157C201.833 177.918 203.979 176.679 206.124 175.438C207.136 174.856 208.149 174.273 209.191 173.673C213.717 171.038 218.046 168.471 221.999 165.001C215.088 163.054 211.907 165.315 206.249 169.313ZM386.999 166.001C386.669 166.661 386.339 167.321 385.999 168.001C386.989 167.671 387.979 167.341 388.999 167.001C388.339 166.671 387.679 166.341 386.999 166.001ZM225.718 174.72C224.835 175.325 223.952 175.93 223.042 176.553C220.182 178.518 217.341 180.509 214.499 182.501C212.544 183.85 210.587 185.198 208.628 186.543C204.795 189.176 200.968 191.817 197.143 194.463C191.019 198.69 184.817 202.783 178.562 206.813C176.843 207.925 175.124 209.037 173.406 210.149C172.655 210.634 171.905 211.118 171.132 211.617C166.388 214.695 161.691 217.843 156.999 221.001C157.659 221.331 158.319 221.661 158.999 222.001C161.532 220.857 161.532 220.857 164.406 219.126C165.529 218.478 166.652 217.83 167.809 217.163C169.039 216.442 170.269 215.722 171.499 215.001C172.77 214.265 174.04 213.529 175.311 212.794C177.932 211.278 180.55 209.757 183.166 208.232C187.751 205.561 192.349 202.915 196.947 200.268C201.2 197.819 205.449 195.363 209.698 192.908C215.526 189.541 221.357 186.177 227.187 182.813C228.808 181.877 228.808 181.877 230.463 180.923C235.635 177.938 240.811 174.958 245.999 172.001C237.783 167.071 232.816 169.667 225.718 174.72ZM20.9994 176.001C19.204 176.766 19.204 176.766 17.3744 177.938C16.2607 178.619 15.1469 179.3 13.9994 180.001C14.3294 180.991 14.6594 181.981 14.9994 183.001C17.6394 181.021 20.2794 179.041 22.9994 177.001C22.3394 176.671 21.6794 176.341 20.9994 176.001ZM258.999 175.001C255.369 177.311 251.739 179.621 247.999 182.001C248.989 182.496 248.989 182.496 249.999 183.001C252.486 181.778 252.486 181.778 255.124 180.063C256.034 179.498 256.945 178.932 257.882 178.349C258.93 177.682 258.93 177.682 259.999 177.001C259.669 176.341 259.339 175.681 258.999 175.001ZM403.441 180.642C402.041 181.496 402.041 181.496 400.613 182.368C399.103 183.3 399.103 183.3 397.562 184.251C396.522 184.888 395.483 185.526 394.411 186.183C386.548 191.016 378.733 195.924 370.941 200.872C365.312 204.444 359.655 207.972 353.999 211.501C343.643 217.965 333.313 224.47 322.999 231.001C323.659 231.331 324.319 231.661 324.999 232.001C327.565 230.841 327.565 230.841 330.476 229.091C332.176 228.111 332.176 228.111 333.91 227.112C335.148 226.388 336.386 225.663 337.624 224.938C338.9 224.2 340.176 223.461 341.452 222.724C344.696 220.846 347.935 218.959 351.172 217.068C353.873 215.491 356.577 213.918 359.281 212.345C363.174 210.077 367.064 207.804 370.953 205.528C378.646 201.032 386.371 196.588 394.098 192.149C400.439 188.5 406.74 184.791 412.999 181.001C411.625 179.459 411.625 179.459 409.999 178.001C407.211 178.001 405.816 179.186 403.441 180.642ZM265.187 184.813C263.692 185.816 262.198 186.819 260.703 187.821C259.551 188.603 259.551 188.603 258.376 189.4C254.434 192.055 250.433 194.617 246.437 197.188C244.998 198.119 243.559 199.05 242.121 199.981C241.091 200.648 240.061 201.314 238.999 202.001C239.659 202.331 240.319 202.661 240.999 203.001C243.568 201.823 243.568 201.823 246.46 200.063C248.129 199.091 248.129 199.091 249.831 198.099C251.013 197.4 252.194 196.7 253.374 196.001C254.505 195.34 255.635 194.678 256.8 193.997C259.071 192.668 261.339 191.335 263.604 189.997C265.906 188.644 268.211 187.301 270.528 185.974C271.624 185.343 272.721 184.713 273.851 184.063C274.842 183.498 275.833 182.932 276.853 182.349C277.562 181.904 278.27 181.459 278.999 181.001C278.999 180.671 278.999 180.341 278.999 180.001C273.007 179.283 269.899 181.543 265.187 184.813ZM243.999 184.001C243.669 184.661 243.339 185.321 242.999 186.001C243.989 185.671 244.979 185.341 245.999 185.001C245.339 184.671 244.679 184.341 243.999 184.001ZM282.124 189.876C280.155 191.189 278.185 192.502 276.214 193.813C275.193 194.504 274.172 195.195 273.12 195.907C268.033 199.32 262.856 202.59 257.687 205.876C255.6 207.211 253.515 208.547 251.429 209.884C246.977 212.735 242.524 215.584 238.07 218.431C236.927 219.161 235.784 219.892 234.641 220.623C232.476 222.007 230.311 223.391 228.145 224.774C223.4 227.808 218.668 230.852 213.999 234.001C214.659 234.331 215.319 234.661 215.999 235.001C218.337 233.955 218.337 233.955 220.968 232.345C222.517 231.441 222.517 231.441 224.097 230.519C225.22 229.853 226.343 229.187 227.499 228.501C228.675 227.812 229.85 227.124 231.027 226.437C233.474 225.006 235.919 223.571 238.363 222.134C243.888 218.888 249.445 215.697 254.999 212.501C257.139 211.265 259.278 210.03 261.417 208.794C265.411 206.489 269.409 204.193 273.413 201.907C275.805 200.54 278.195 199.171 280.585 197.801C282.268 196.839 283.953 195.881 285.638 194.923C286.661 194.336 287.684 193.75 288.738 193.145C289.635 192.633 290.533 192.121 291.458 191.594C294.147 189.909 296.56 188.027 298.999 186.001C291.785 182.579 288.289 185.583 282.124 189.876ZM155.999 185.001C155.669 185.661 155.339 186.321 154.999 187.001C155.989 186.671 156.979 186.341 157.999 186.001C157.339 185.671 156.679 185.341 155.999 185.001ZM415.152 190.895C414.163 191.515 413.175 192.135 412.156 192.774C411.094 193.447 410.031 194.12 408.937 194.813C407.298 195.845 407.298 195.845 405.626 196.898C398.221 201.569 390.854 206.296 383.515 211.071C377.965 214.68 372.388 218.246 366.812 221.813C365.746 222.496 364.679 223.178 363.581 223.881C357.534 227.748 351.48 231.604 345.421 235.452C334.23 242.559 323.098 249.751 311.999 257.001C312.659 257.331 313.319 257.661 313.999 258.001C316.337 256.955 316.337 256.955 318.968 255.345C320.001 254.742 321.033 254.139 322.097 253.519C323.22 252.853 324.343 252.187 325.499 251.501C326.675 250.812 327.85 250.124 329.027 249.437C331.474 248.006 333.919 246.571 336.363 245.134C341.888 241.888 347.445 238.697 352.999 235.501C355.166 234.251 357.333 233.001 359.499 231.751C363.833 229.251 368.166 226.751 372.499 224.251C373.573 223.631 374.647 223.012 375.754 222.374C377.906 221.132 380.059 219.89 382.212 218.648C387.246 215.744 392.279 212.84 397.31 209.932C399.083 208.907 400.857 207.883 402.63 206.858C404.849 205.576 407.068 204.294 409.287 203.011C415.161 199.618 421.056 196.27 426.999 193.001C425.376 191.292 423.706 189.626 421.999 188.001C419.107 188.001 417.592 189.359 415.152 190.895ZM304.624 194.626C303.086 195.647 301.547 196.666 300.007 197.685C299.192 198.227 298.376 198.77 297.536 199.329C293.226 202.171 288.861 204.926 284.499 207.688C282.631 208.876 280.762 210.063 278.894 211.251C277.937 211.859 276.98 212.468 275.994 213.095C260.956 222.668 245.949 232.29 230.999 242.001C230.122 242.571 229.245 243.14 228.341 243.728C222.559 247.483 216.779 251.241 210.999 255.001C211.659 255.331 212.319 255.661 212.999 256.001C215.565 254.841 215.565 254.841 218.476 253.091C220.176 252.111 220.176 252.111 221.91 251.112C223.148 250.388 224.386 249.663 225.624 248.938C226.9 248.2 228.176 247.461 229.452 246.724C232.696 244.846 235.935 242.959 239.172 241.068C241.873 239.491 244.577 237.918 247.281 236.345C251.194 234.065 255.105 231.78 259.015 229.493C265.288 225.827 271.58 222.193 277.874 218.563C278.94 217.949 280.005 217.334 281.102 216.701C286.203 213.758 291.308 210.822 296.422 207.902C298.812 206.537 301.199 205.169 303.587 203.8C305.269 202.838 306.953 201.881 308.638 200.923C309.661 200.336 310.684 199.75 311.738 199.145C312.635 198.633 313.533 198.121 314.458 197.594C317.147 195.909 319.56 194.027 321.999 192.001C314.453 189.257 311.076 190.241 304.624 194.626ZM165.999 196.001C165.669 196.661 165.339 197.321 164.999 198.001C165.989 197.671 166.979 197.341 167.999 197.001C167.339 196.671 166.679 196.341 165.999 196.001ZM427.874 203.001C427.311 203.383 426.748 203.764 426.167 204.157C424.775 205.101 423.387 206.05 421.999 207.001C422.989 207.496 422.989 207.496 423.999 208.001C426.946 206.625 426.946 206.625 430.124 204.688C431.22 204.053 432.316 203.417 433.445 202.763C434.709 201.891 434.709 201.891 435.999 201.001C435.999 200.341 435.999 199.681 435.999 199.001C432.692 199.001 430.555 201.176 427.874 203.001ZM234.999 204.001C234.669 204.661 234.339 205.321 233.999 206.001C234.989 205.671 235.979 205.341 236.999 205.001C236.339 204.671 235.679 204.341 234.999 204.001ZM443.999 207.001C443.009 207.991 442.019 208.981 440.999 210.001C442.319 209.671 443.639 209.341 444.999 209.001C444.669 208.341 444.339 207.681 443.999 207.001ZM417.999 209.001C417.669 209.661 417.339 210.321 416.999 211.001C417.989 210.671 418.979 210.341 419.999 210.001C419.339 209.671 418.679 209.341 417.999 209.001ZM438.999 210.001C438.009 210.991 437.019 211.981 435.999 213.001C437.649 212.341 439.299 211.681 440.999 211.001C440.339 210.671 439.679 210.341 438.999 210.001ZM45.9994 215.001C43.835 216.049 41.8149 217.148 39.7494 218.368C39.1355 218.722 38.5216 219.077 37.8891 219.441C35.9214 220.579 33.9604 221.727 31.9994 222.876C30.6769 223.644 29.354 224.411 28.0307 225.177C26.1668 226.256 24.3037 227.336 22.4438 228.423C18.1995 230.901 18.1995 230.901 15.9994 232.001C15.9994 233.651 15.9994 235.301 15.9994 237.001C19.764 235.657 22.6313 233.973 25.8119 231.563C30.697 227.93 35.6629 224.44 40.6869 221.001C41.4066 220.508 42.1263 220.015 42.8678 219.507C44.5775 218.337 46.2884 217.169 47.9994 216.001C47.3394 215.671 46.6794 215.341 45.9994 215.001ZM449.78 216.511C448.555 217.314 447.344 218.138 446.144 218.978C445.489 219.415 444.833 219.852 444.158 220.302C442.031 221.726 439.922 223.176 437.812 224.626C436.365 225.602 434.916 226.576 433.466 227.549C430.608 229.469 427.757 231.4 424.912 233.339C420.737 236.184 416.534 238.984 412.322 241.774C409.207 243.838 406.103 245.919 402.999 248.001C403.659 248.331 404.319 248.661 404.999 249.001C407.565 247.841 407.565 247.841 410.476 246.091C411.611 245.437 412.747 244.783 413.916 244.109C415.152 243.386 416.389 242.662 417.624 241.938C418.882 241.209 420.139 240.48 421.397 239.752C423.984 238.253 426.569 236.749 429.151 235.242C432.236 233.442 435.33 231.658 438.428 229.881C441.183 228.3 443.935 226.713 446.687 225.126C447.713 224.538 448.739 223.95 449.797 223.344C450.734 222.801 451.671 222.257 452.636 221.696C453.458 221.222 454.28 220.748 455.127 220.259C457.141 219.129 457.141 219.129 457.999 217.001C454.54 214.916 453.517 214.758 449.78 216.511ZM154.999 222.001C154.669 222.661 154.339 223.321 153.999 224.001C154.989 223.671 155.979 223.341 156.999 223.001C156.339 222.671 155.679 222.341 154.999 222.001ZM458.023 229.595C457.338 230.061 456.652 230.527 455.946 231.007C453.753 232.501 451.564 234.001 449.374 235.501C447.89 236.513 446.406 237.525 444.921 238.536C441.277 241.02 437.637 243.509 433.999 246.001C434.659 246.331 435.319 246.661 435.999 247.001C438.306 246.002 438.306 246.002 440.874 244.466C441.861 243.903 442.847 243.34 443.863 242.761C445.415 241.859 445.415 241.859 446.999 240.938C448.004 240.364 449.008 239.79 450.042 239.198C456.409 235.545 462.72 231.802 468.999 228.001C468.339 227.011 467.679 226.021 466.999 225.001C463.505 225.001 460.827 227.666 458.023 229.595ZM320.999 232.001C320.009 232.991 319.019 233.981 317.999 235.001C319.649 234.341 321.299 233.681 322.999 233.001C322.339 232.671 321.679 232.341 320.999 232.001ZM469.687 238.751C465.852 241.619 462.016 244.396 457.999 247.001C458.989 247.496 458.989 247.496 459.999 248.001C462.08 247.098 462.08 247.098 464.351 245.692C465.202 245.193 466.053 244.693 466.929 244.179C467.819 243.646 468.708 243.113 469.624 242.563C470.522 242.034 471.419 241.505 472.343 240.96C474.566 239.647 476.785 238.327 478.999 237.001C478.669 236.341 478.339 235.681 477.999 235.001C474.062 235.001 472.8 236.391 469.687 238.751ZM46.9994 244.001C46.6694 244.661 46.3394 245.321 45.9994 246.001C46.9894 245.671 47.9794 245.341 48.9994 245.001C48.3394 244.671 47.6794 244.341 46.9994 244.001ZM480.097 247.606C478.898 248.455 478.898 248.455 477.675 249.32C476.382 250.245 476.382 250.245 475.062 251.188C473.251 252.472 471.44 253.755 469.628 255.036C468.234 256.022 468.234 256.022 466.812 257.029C461.621 260.668 456.362 264.21 451.093 267.736C447.389 270.243 444.012 272.652 440.999 276.001C445.531 274.347 449.618 272.104 453.812 269.751C454.573 269.326 455.334 268.902 456.118 268.464C466.829 262.456 477.411 256.221 487.999 250.001C487.339 248.351 486.679 246.701 485.999 245.001C483.297 245.001 482.293 246.041 480.097 247.606ZM43.9994 246.001C40.1304 247.764 36.4765 249.936 32.7951 252.06C30.9504 253.118 29.0922 254.15 27.2318 255.181C26.0584 255.851 24.8858 256.523 23.7143 257.196C22.643 257.805 21.5717 258.413 20.4679 259.041C17.782 260.797 17.782 260.797 17.1422 263.739C17.0951 264.485 17.048 265.232 16.9994 266.001C26.8006 259.87 36.397 253.437 45.9994 247.001C45.3394 246.671 44.6794 246.341 43.9994 246.001ZM431.999 247.001C431.669 247.661 431.339 248.321 430.999 249.001C431.989 248.671 432.979 248.341 433.999 248.001C433.339 247.671 432.679 247.341 431.999 247.001ZM455.999 248.001C455.669 248.661 455.339 249.321 454.999 250.001C455.989 249.671 456.979 249.341 457.999 249.001C457.339 248.671 456.679 248.341 455.999 248.001ZM400.999 249.001C400.669 249.661 400.339 250.321 399.999 251.001C400.989 250.671 401.979 250.341 402.999 250.001C402.339 249.671 401.679 249.341 400.999 249.001ZM57.9994 254.001C57.6694 254.661 57.3394 255.321 56.9994 256.001C57.9894 255.671 58.9794 255.341 59.9994 255.001C59.3394 254.671 58.6794 254.341 57.9994 254.001ZM54.9994 256.001C52.2033 257.293 52.2033 257.293 49.0307 259.192C48.4357 259.535 47.8408 259.877 47.2278 260.23C45.3139 261.333 43.4067 262.448 41.4994 263.563C40.2446 264.289 38.9894 265.013 37.7338 265.737C35.2867 267.15 32.8476 268.575 30.4135 270.009C28.2586 271.266 26.0883 272.498 23.8979 273.692C22.9929 274.195 22.088 274.698 21.1557 275.216C20.37 275.639 19.5843 276.061 18.7748 276.497C16.4451 278.471 16.3064 280.029 15.9994 283.001C20.2611 281.506 23.8001 279.287 27.4994 276.751C28.813 275.863 30.1268 274.975 31.4408 274.087C32.1577 273.601 32.8746 273.114 33.6132 272.613C38.2053 269.511 42.8235 266.447 47.4369 263.376C49.2691 262.155 51.1011 260.933 52.933 259.712C54.2885 258.808 55.644 257.905 56.9994 257.001C56.3394 256.671 55.6794 256.341 54.9994 256.001ZM83.9994 256.001C81.6616 257.047 81.6616 257.047 79.0307 258.657C77.4808 259.562 77.4808 259.562 75.8996 260.485C74.2165 261.483 74.2165 261.483 72.4994 262.501C71.3307 263.186 70.1615 263.871 68.9919 264.554C66.5512 265.982 64.1128 267.413 61.6757 268.846C57.045 271.566 52.3901 274.242 47.7333 276.917C45.5458 278.175 43.3612 279.439 41.1796 280.708C36.355 283.514 31.5252 286.278 26.5893 288.884C25.7837 289.321 24.9781 289.758 24.1481 290.209C22.6854 291 21.2099 291.768 19.7199 292.506C17.5359 293.619 17.5359 293.619 14.9994 296.001C14.4152 298.891 14.6545 301.019 14.9994 304.001C25.0188 297.721 34.8772 291.195 44.7492 284.687C47.6615 282.768 50.5755 280.851 53.4897 278.935C64.411 271.743 75.2622 264.465 85.9994 257.001C85.0094 256.506 85.0094 256.506 83.9994 256.001ZM208.999 256.001C208.669 256.661 208.339 257.321 207.999 258.001C208.989 257.671 209.979 257.341 210.999 257.001C210.339 256.671 209.679 256.341 208.999 256.001ZM451.999 299.001C451.669 299.661 451.339 300.321 450.999 301.001C451.989 300.671 452.979 300.341 453.999 300.001C453.339 299.671 452.679 299.341 451.999 299.001ZM333.999 300.001C333.669 300.661 333.339 301.321 332.999 302.001C333.989 301.671 334.979 301.341 335.999 301.001C335.339 300.671 334.679 300.341 333.999 300.001ZM86.9994 302.001C86.6694 302.661 86.3394 303.321 85.9994 304.001C86.9894 303.671 87.9794 303.341 88.9994 303.001C88.3394 302.671 87.6794 302.341 86.9994 302.001ZM330.999 302.001C328.401 303.177 328.401 303.177 325.453 304.946C324.613 305.429 324.613 305.429 323.756 305.921C321.916 306.982 320.083 308.054 318.249 309.126C316.988 309.856 315.726 310.586 314.463 311.315C310.635 313.531 306.816 315.764 302.999 318.001C302.416 318.343 301.832 318.685 301.231 319.037C294.472 323.001 287.728 326.988 280.999 331.001C284.648 332.825 288.249 330.914 291.962 329.726C300.469 326.396 307.88 320.455 315.312 315.251C317.034 314.063 318.757 312.877 320.482 311.692C324.667 308.813 328.837 305.913 332.999 303.001C332.339 302.671 331.679 302.341 330.999 302.001ZM81.9994 305.001C79.6616 306.047 79.6616 306.047 77.0307 307.657C75.4808 308.562 75.4808 308.562 73.8996 309.485C72.2165 310.483 72.2165 310.483 70.4994 311.501C69.3307 312.186 68.1615 312.871 66.9919 313.554C64.5512 314.982 62.1128 316.413 59.6757 317.846C55.0449 320.566 50.3898 323.242 45.7333 325.917C42.4851 327.786 39.2441 329.666 36.0033 331.548C32.2251 333.736 28.4268 335.872 24.5893 337.954C23.3809 338.623 23.3809 338.623 22.1481 339.306C20.6822 340.117 19.2066 340.91 17.7199 341.682C15.5673 342.819 15.5673 342.819 12.9994 345.001C12.4241 348.19 12.4241 348.19 12.9994 351.001C20.0548 347.228 26.782 343.03 33.4994 338.688C35.1466 337.629 36.7938 336.569 38.4411 335.509C39.5755 334.78 40.7096 334.049 41.8435 333.319C45.8125 330.762 49.7888 328.216 53.769 325.677C54.8659 324.977 55.9629 324.276 57.0932 323.555C59.1696 322.23 61.2464 320.905 63.3236 319.582C70.2745 315.14 77.151 310.598 83.9994 306.001C83.0094 305.506 83.0094 305.506 81.9994 305.001ZM215.999 305.001C215.669 305.661 215.339 306.321 214.999 307.001C215.989 306.671 216.979 306.341 217.999 306.001C217.339 305.671 216.679 305.341 215.999 305.001ZM295.999 305.001C293.662 306.047 293.662 306.047 291.031 307.657C289.481 308.562 289.481 308.562 287.9 309.485C286.216 310.483 286.216 310.483 284.499 311.501C283.331 312.186 282.162 312.871 280.992 313.554C278.551 314.982 276.113 316.413 273.676 317.846C267.952 321.207 262.192 324.506 256.437 327.813C246.592 333.487 236.778 339.213 226.999 345.001C232.784 347.096 238.588 344.184 243.999 342.001C248.416 339.576 252.505 336.772 256.624 333.876C257.775 333.085 258.926 332.296 260.079 331.509C262.484 329.865 264.884 328.213 267.28 326.556C272.929 322.661 278.652 318.877 284.368 315.084C287.263 313.162 290.152 311.233 293.042 309.306C294.695 308.204 296.347 307.103 297.999 306.001C297.009 305.506 297.009 305.506 295.999 305.001ZM108.999 307.001C106.662 308.047 106.662 308.047 104.031 309.657C102.998 310.26 101.966 310.862 100.902 311.483C99.779 312.149 98.6562 312.815 97.4994 313.501C96.3241 314.19 95.1484 314.878 93.9721 315.565C91.5248 316.996 89.0797 318.431 86.6361 319.868C81.1107 323.114 75.5536 326.305 69.9994 329.501C67.8443 330.744 65.6894 331.988 63.5346 333.231C57.9535 336.451 52.3701 339.667 46.7863 342.883C43.5218 344.765 40.2604 346.652 36.9994 348.54C33.2212 350.726 29.4313 352.888 25.6244 355.024C24.8234 355.48 24.0223 355.935 23.1969 356.404C21.7397 357.232 20.277 358.051 18.8078 358.858C15.2704 360.84 15.2704 360.84 13.0033 364.083C12.8973 366.225 12.8973 366.225 13.9994 369.001C18.8744 367.331 22.945 364.644 27.2494 361.876C28.476 361.094 28.476 361.094 29.7275 360.296C31.5215 359.151 33.3142 358.005 35.1059 356.856C38.1382 354.912 41.174 352.974 44.2104 351.036C54.0483 344.754 63.8715 338.45 73.662 332.094C80.4957 327.664 87.3716 323.302 94.2521 318.946C99.8861 315.372 105.466 311.728 110.999 308.001C110.009 307.506 110.009 307.506 108.999 307.001ZM212.999 307.001C210.923 307.868 210.923 307.868 208.617 309.255C207.256 310.031 207.256 310.031 205.867 310.823C204.88 311.397 203.892 311.972 202.874 312.563C201.846 313.153 200.818 313.743 199.758 314.351C196.5 316.225 193.249 318.111 189.999 320.001C188.506 320.868 188.506 320.868 186.982 321.753C182.037 324.629 177.097 327.513 172.16 330.403C162.56 336.018 152.918 341.559 143.282 347.11C137.853 350.238 132.426 353.37 126.999 356.501C120.922 360.007 114.845 363.514 108.767 367.018C107.016 368.027 105.266 369.036 103.515 370.046C101.336 371.303 99.1558 372.559 96.976 373.815C89.9708 377.855 82.9808 381.92 75.9994 386.001C83.4799 388.494 93.954 383.774 100.999 381.001C107.747 377.598 113.915 373.255 120.121 368.966C125.106 365.564 130.216 362.359 135.312 359.126C137.423 357.775 139.534 356.424 141.644 355.071C146.89 351.712 152.136 348.353 157.383 344.995C159.457 343.668 161.532 342.34 163.606 341.012C168.913 337.615 174.221 334.219 179.531 330.825C191.376 323.251 203.207 315.657 214.999 308.001C214.009 307.506 214.009 307.506 212.999 307.001ZM48.9994 309.001C48.6694 309.661 48.3394 310.321 47.9994 311.001C48.9894 310.671 49.9794 310.341 50.9994 310.001C50.3394 309.671 49.6794 309.341 48.9994 309.001ZM345.999 309.001C345.669 309.661 345.339 310.321 344.999 311.001C345.989 310.671 346.979 310.341 347.999 310.001C347.339 309.671 346.679 309.341 345.999 309.001ZM369.999 310.001C369.669 310.661 369.339 311.321 368.999 312.001C369.989 311.671 370.979 311.341 371.999 311.001C371.339 310.671 370.679 310.341 369.999 310.001ZM342.999 311.001C341.214 311.709 341.214 311.709 339.304 312.872C338.231 313.486 338.231 313.486 337.136 314.112C336.39 314.55 335.643 314.988 334.874 315.438C334.12 315.872 333.366 316.306 332.589 316.753C330.722 317.828 328.86 318.914 326.999 320.001C327.329 320.991 327.659 321.981 327.999 323.001C336.554 317.585 336.554 317.585 344.999 312.001C344.339 311.671 343.679 311.341 342.999 311.001ZM43.9994 312.001C43.6694 312.661 43.3394 313.321 42.9994 314.001C43.9894 313.671 44.9794 313.341 45.9994 313.001C45.3394 312.671 44.6794 312.341 43.9994 312.001ZM366.999 312.001C364.154 313.326 364.154 313.326 360.925 315.263C360.323 315.61 359.721 315.957 359.101 316.314C357.167 317.432 355.239 318.56 353.312 319.688C352.032 320.431 350.751 321.172 349.47 321.913C347.088 323.292 344.71 324.675 342.333 326.062C338.898 328.06 335.451 330.034 331.999 332.001C331.999 333.981 331.999 335.961 331.999 338.001C338.496 334.488 344.46 330.305 350.499 326.063C351.506 325.36 352.513 324.657 353.55 323.933C358.721 320.317 363.874 316.68 368.999 313.001C368.339 312.671 367.679 312.341 366.999 312.001ZM18.9994 313.001C18.6694 313.661 18.3394 314.321 17.9994 315.001C18.9894 314.671 19.9794 314.341 20.9994 314.001C20.3394 313.671 19.6794 313.341 18.9994 313.001ZM40.9994 314.001C38.6107 315.05 38.6107 315.05 35.9486 316.642C34.94 317.218 33.9313 317.794 32.892 318.388C31.8343 319.003 30.7767 319.617 29.6869 320.251C28.1178 321.15 28.1178 321.15 26.517 322.067C23.6714 323.701 20.8312 325.343 17.9994 327.001C16.5933 327.749 16.5933 327.749 15.1588 328.512C14.4462 329.003 13.7336 329.495 12.9994 330.001C12.9994 330.991 12.9994 331.981 12.9994 333.001C16.3946 331.729 19.3785 330.27 22.433 328.321C23.2471 327.804 24.0611 327.287 24.8998 326.755C25.7371 326.217 26.5743 325.68 27.4369 325.126C28.2703 324.596 29.1037 324.066 29.9623 323.52C34.342 320.73 38.6915 317.901 42.9994 315.001C42.3394 314.671 41.6794 314.341 40.9994 314.001ZM13.9994 316.001C14.3294 316.661 14.6594 317.321 14.9994 318.001C15.9894 317.011 16.9794 316.021 17.9994 315.001C15.9249 314.852 15.9249 314.852 13.9994 316.001ZM132.999 336.001C132.669 336.661 132.339 337.321 131.999 338.001C132.989 337.671 133.979 337.341 134.999 337.001C134.339 336.671 133.679 336.341 132.999 336.001ZM129.999 338.001C129.009 338.991 128.019 339.981 126.999 341.001C128.649 340.341 130.299 339.681 131.999 339.001C131.339 338.671 130.679 338.341 129.999 338.001ZM124.999 341.001C122.923 341.868 122.923 341.868 120.617 343.255C119.256 344.031 119.256 344.031 117.867 344.823C116.88 345.397 115.892 345.972 114.874 346.563C113.846 347.153 112.818 347.743 111.758 348.351C108.5 350.225 105.249 352.111 101.999 354.001C100.506 354.868 100.506 354.868 98.9823 355.753C94.0366 358.629 89.0967 361.513 84.1596 364.403C74.598 369.996 64.9942 375.515 55.3959 381.044C49.975 384.167 44.5561 387.294 39.1371 390.421C36.3491 392.03 33.561 393.639 30.7729 395.247C29.8491 395.78 28.9253 396.313 27.9735 396.862C27.3221 397.238 26.6706 397.614 25.9994 398.001C26.3294 398.661 26.6594 399.321 26.9994 400.001C38.1054 399.582 47.1152 392.435 56.1869 386.563C58.1226 385.322 60.0588 384.081 61.9955 382.841C62.9854 382.206 63.9752 381.572 64.995 380.918C69.8947 377.791 74.8198 374.706 79.7494 371.626C80.7301 371.013 81.7107 370.4 82.7211 369.769C88.1291 366.396 93.5485 363.043 98.9799 359.708C99.8537 359.171 99.8537 359.171 100.745 358.624C103.556 356.898 106.369 355.174 109.184 353.455C115.211 349.762 121.155 345.978 126.999 342.001C126.009 341.506 126.009 341.506 124.999 341.001ZM201.999 346.001C201.669 346.661 201.339 347.321 200.999 348.001C201.989 347.671 202.979 347.341 203.999 347.001C203.339 346.671 202.679 346.341 201.999 346.001ZM361.999 346.001C361.669 346.661 361.339 347.321 360.999 348.001C361.989 347.671 362.979 347.341 363.999 347.001C363.339 346.671 362.679 346.341 361.999 346.001ZM358.999 348.001C356.611 349.05 356.611 349.05 353.949 350.642C352.94 351.218 351.931 351.794 350.892 352.388C349.834 353.003 348.777 353.617 347.687 354.251C346.118 355.15 346.118 355.15 344.517 356.067C341.671 357.701 338.831 359.343 335.999 361.001C335.062 361.479 334.125 361.957 333.159 362.449C332.446 362.961 331.734 363.473 330.999 364.001C330.999 365.321 330.999 366.641 330.999 368.001C335.093 366.548 338.382 364.543 341.956 362.087C342.504 361.712 343.052 361.338 343.617 360.952C345.351 359.764 347.082 358.57 348.812 357.376C349.993 356.566 351.175 355.756 352.357 354.946C355.241 352.97 358.121 350.987 360.999 349.001C360.339 348.671 359.679 348.341 358.999 348.001ZM196.999 349.001C196.669 349.661 196.339 350.321 195.999 351.001C196.989 350.671 197.979 350.341 198.999 350.001C198.339 349.671 197.679 349.341 196.999 349.001ZM331.999 350.001C332.329 350.661 332.659 351.321 332.999 352.001C333.329 351.341 333.659 350.681 333.999 350.001C333.339 350.001 332.679 350.001 331.999 350.001ZM188.374 354.001C187.372 354.558 186.369 355.115 185.335 355.688C184.564 356.122 183.794 356.555 182.999 357.001C185.894 358.33 185.894 358.33 188.226 357.075C189.017 356.618 189.809 356.16 190.624 355.688C191.421 355.239 192.218 354.789 193.038 354.325C195.132 353.145 195.132 353.145 195.999 351.001C192.972 351.001 190.995 352.538 188.374 354.001ZM164.999 354.001C164.669 354.661 164.339 355.321 163.999 356.001C164.989 355.671 165.979 355.341 166.999 355.001C166.339 354.671 165.679 354.341 164.999 354.001ZM161.999 356.001C159.528 357.099 159.528 357.099 156.773 358.747C155.742 359.337 154.71 359.927 153.648 360.534C152.568 361.163 151.487 361.791 150.374 362.438C148.742 363.375 148.742 363.375 147.078 364.331C144.381 365.881 141.688 367.437 138.999 369.001C142.809 370.271 143.435 369.761 146.999 368.001C149.988 366.202 152.902 364.298 155.812 362.376C156.6 361.86 157.388 361.345 158.201 360.813C160.136 359.547 162.069 358.276 163.999 357.001C163.339 356.671 162.679 356.341 161.999 356.001ZM18.9994 378.001C18.6694 378.661 18.3394 379.321 17.9994 380.001C18.9894 379.671 19.9794 379.341 20.9994 379.001C20.3394 378.671 19.6794 378.341 18.9994 378.001Z" fill="#FF7900"/>
<path d="M341.062 100.251C350.486 105.677 358.194 113.675 365.144 121.946C371.733 129.242 379.526 135.547 387.163 141.696C390.255 144.209 393.284 146.787 396.312 149.376C400.77 153.177 405.309 156.847 409.937 160.438C415.417 164.693 420.715 169.121 425.96 173.661C429.43 176.663 432.935 179.61 436.499 182.501C445.819 190.078 454.9 197.935 463.792 206.009C465.736 207.763 467.703 209.481 469.687 211.188C503.354 240.613 503.354 240.613 507.999 256.001C507.869 260.338 507.488 262.421 504.663 265.774C503.666 266.66 502.652 267.526 501.624 268.376C501.089 268.843 500.553 269.31 500.001 269.791C495.577 273.616 491.015 277.279 486.46 280.946C483.684 283.265 481.169 285.741 478.656 288.337C476.314 290.69 473.805 292.826 471.292 294.993C468.53 297.412 465.825 299.89 463.124 302.376C459.434 305.771 455.732 309.152 451.999 312.501C447.792 316.277 443.621 320.092 439.458 323.917C436.343 326.777 433.211 329.616 430.062 332.438C426.131 335.964 422.248 339.537 418.374 343.126C412.614 348.455 406.76 353.648 400.788 358.739C399.588 359.764 398.387 360.789 397.187 361.813C396.581 362.331 395.975 362.848 395.35 363.381C391.609 366.586 387.938 369.853 384.312 373.188C379.562 377.538 374.649 381.627 369.637 385.668C367.776 387.183 365.932 388.718 364.089 390.255C359.753 393.87 355.383 397.442 350.999 401.001C350.274 401.595 349.549 402.19 348.801 402.802C346.696 404.515 344.571 406.199 342.437 407.876C341.807 408.394 341.177 408.912 340.528 409.446C335.854 413.049 332.881 413.597 326.999 413.001C322.67 411.591 321.291 409.056 319.249 405.188C315.839 398.228 315.807 391.41 315.812 383.813C315.811 382.82 315.811 381.826 315.81 380.802C315.872 371.657 316.535 362.59 317.283 353.479C317.919 345.623 318.262 337.886 317.999 330.001C315.874 330.645 313.749 331.291 311.624 331.938C309.849 332.478 309.849 332.478 308.038 333.028C305.12 333.877 305.12 333.877 302.999 335.001C301.125 335.302 299.245 335.57 297.363 335.821C290.188 336.89 283.223 338.524 276.214 340.35C274.174 340.879 272.131 341.392 270.087 341.903C262.224 343.845 262.224 343.845 254.863 347.134C251.684 348.916 248.916 349.38 245.309 349.804C236.971 351.011 229.186 353.485 221.179 356.024C219.566 356.528 217.953 357.031 216.339 357.533C212.938 358.592 209.538 359.656 206.139 360.724C197.308 363.498 188.464 366.231 179.621 368.966C178.754 369.234 177.887 369.502 176.993 369.779C139.153 381.483 100.614 393.129 61.4174 399.331C55.2001 400.361 50.53 401.985 44.9994 405.001C42.0619 405.313 42.0619 405.313 39.9994 405.001C39.6694 404.671 39.3394 404.341 38.9994 404.001C36.2174 404.094 33.4624 404.245 30.6869 404.438C23.4465 404.899 16.257 405.129 8.99943 405.001C8.34808 403.441 7.7036 401.878 7.06193 400.313C6.70228 399.443 6.34263 398.573 5.97208 397.677C3.79194 391.679 3.31838 385.235 2.49943 378.938C2.30413 377.478 2.30413 377.478 2.10489 375.987C1.71371 372.994 1.34914 369.999 0.999426 367.001C0.897187 366.144 0.794948 365.287 0.689611 364.404C-0.416291 353.5 -0.195316 342.51 -0.188074 331.563C-0.188799 330.432 -0.189525 329.301 -0.190272 328.135C-0.189222 313.14 0.173372 298.222 0.999426 283.251C2.1271 262.51 2.22951 241.778 2.24619 221.012C2.24938 218.417 2.25645 215.822 2.26456 213.227C2.31533 194.932 2.08679 176.814 0.452551 158.577C-0.917646 143.045 -2.06735 124.525 6.99943 111.001C11.6362 106.802 17.5061 103.19 23.8567 102.847C34.5515 103.555 44.4357 106.194 54.726 109.056C56.6724 109.586 58.6191 110.116 60.5661 110.644C64.737 111.779 68.9056 112.922 73.0725 114.071C79.7326 115.908 86.3974 117.727 93.0631 119.543C101.208 121.763 109.352 123.988 117.495 126.217C131.989 130.185 146.493 134.118 161.003 138.028C162.053 138.311 163.103 138.594 164.185 138.886C168.396 140.021 172.607 141.155 176.818 142.289C188.17 145.347 199.521 148.411 210.871 151.478C211.872 151.748 212.874 152.019 213.906 152.297C247.947 161.494 281.974 170.744 315.999 180.001C315.995 179.41 315.991 178.819 315.986 178.21C315.941 171.979 315.911 165.749 315.89 159.518C315.88 157.202 315.866 154.886 315.849 152.57C315.602 118.971 315.602 118.971 320.999 104.001C321.659 104.001 322.319 104.001 322.999 104.001C323.34 103.073 323.34 103.073 323.687 102.126C327.474 95.9952 335.556 97.2895 341.062 100.251ZM22.9994 111.001C14.2587 119.544 13.0466 130.204 12.8315 141.989C12.8165 144.431 12.8107 146.872 12.8119 149.313C12.8112 149.977 12.8105 150.64 12.8097 151.324C12.8116 167.689 13.5448 184.032 14.2878 200.377C14.787 211.614 15.0614 222.805 14.977 234.053C14.9432 241.046 15.2148 247.985 15.5893 254.966C16.1496 266.176 15.6047 277.17 14.792 288.354C13.4394 307.221 12.6992 326.024 12.7494 344.938C12.7506 345.917 12.7517 346.896 12.7529 347.904C11.8036 373.433 11.8036 373.433 20.2494 396.813C23.6918 399.552 26.7259 399.897 30.9994 400.001C34.5198 399.491 34.5198 399.491 38.0619 398.438C39.4551 398.062 40.8484 397.686 42.2416 397.31C42.9954 397.101 43.7492 396.892 44.5258 396.676C47.242 395.935 49.9666 395.232 52.6947 394.536C61.778 392.214 70.815 389.842 79.7533 387.005C83.8992 385.723 88.0697 384.542 92.2494 383.376C92.9827 383.17 93.7159 382.963 94.4714 382.751C98.8186 381.545 103.177 380.503 107.584 379.546C112.25 378.493 116.872 377.27 121.499 376.063C122.48 375.811 123.461 375.559 124.472 375.3C128.92 374.142 133.31 372.935 137.656 371.435C141.304 370.182 144.941 369.278 148.713 368.484C160.219 366.053 171.465 362.96 182.574 359.118C186.81 357.736 191.07 356.758 195.421 355.81C205.079 353.627 214.704 351.111 224.124 348.063C230.424 346.066 236.82 344.574 243.249 343.063C252.539 340.877 261.684 338.444 270.809 335.662C282.616 332.1 294.485 328.791 306.468 325.88C309.711 325.073 312.914 324.179 316.124 323.251C319.847 322.212 323.104 321.685 326.999 322.001C330.71 328.938 331.165 334.543 331.124 342.251C331.122 343.147 331.121 344.043 331.119 344.967C331.085 350.248 330.88 355.481 330.499 360.751C329.944 368.714 329.823 376.686 329.767 384.666C329.755 386.134 329.738 387.602 329.716 389.071C329.686 391.149 329.676 393.227 329.671 395.306C329.662 396.522 329.653 397.739 329.643 398.993C329.734 402.01 329.734 402.01 331.52 403.919C332.008 404.276 332.496 404.633 332.999 405.001C340.238 399.033 347.178 392.978 353.746 386.263C356.326 383.673 359.029 381.288 361.804 378.911C364.584 376.493 367.291 373.998 369.999 371.501C377.938 364.199 386.104 357.179 394.3 350.169C396.677 348.135 399.05 346.096 401.417 344.052C410.493 336.223 419.723 328.591 428.999 321.001C430.045 320.144 431.091 319.287 432.136 318.431C433.492 317.321 433.492 317.321 434.874 316.188C436.133 315.156 436.133 315.156 437.417 314.103C439.306 312.565 441.207 311.041 443.113 309.524C444.127 308.712 445.142 307.9 446.187 307.063C447.109 306.333 448.03 305.602 448.98 304.849C449.646 304.239 450.313 303.629 450.999 303.001C450.999 302.341 450.999 301.681 450.999 301.001C451.586 300.727 452.173 300.453 452.778 300.171C454.932 299.037 456.655 297.812 458.538 296.278C459.197 295.744 459.855 295.21 460.533 294.66C461.223 294.092 461.913 293.524 462.624 292.938C463.336 292.354 464.049 291.77 464.782 291.168C482.635 277.073 482.635 277.073 491.437 256.938C490.337 247.041 483.058 238.589 475.999 232.001C473.73 230.207 471.433 228.45 469.132 226.696C466.556 224.648 464.325 222.327 461.999 220.001C460.261 218.715 458.486 217.492 456.706 216.263C454.213 214.42 452.126 212.249 449.999 210.001C449.339 209.341 448.679 208.681 447.999 208.001C447.009 208.001 446.019 208.001 444.999 208.001C444.761 207.418 444.522 206.836 444.277 206.235C442.73 203.53 441.024 202.157 438.562 200.251C437.228 199.213 437.228 199.213 435.867 198.153C433 196.001 430.1 193.902 427.187 191.813C423.434 189.119 420.225 186.316 416.999 183.001C415.847 182.148 414.679 181.315 413.499 180.501C410.301 178.282 407.728 175.793 404.999 173.001C402.54 170.738 400.054 168.508 397.558 166.286C395.952 164.852 394.359 163.403 392.785 161.935C392.113 161.317 391.441 160.7 390.749 160.063C390.167 159.518 389.584 158.973 388.984 158.411C386.36 156.547 384.14 155.733 380.999 155.001C378.212 155.857 378.212 155.857 375.57 157.595C374.538 158.206 373.506 158.818 372.444 159.448C371.348 160.126 370.253 160.803 369.124 161.501C367.978 162.192 366.831 162.88 365.682 163.567C363.906 164.631 362.132 165.696 360.363 166.771C356.323 169.224 352.245 171.588 348.128 173.911C346.503 174.833 346.503 174.833 344.845 175.774C342.785 176.941 340.722 178.102 338.654 179.255C332.818 182.571 332.818 182.571 328.206 187.341C325.999 190.001 325.999 190.001 323.206 191.02C319.042 190.995 315.618 189.984 311.687 188.688C310.163 188.212 308.638 187.738 307.113 187.267C306.393 187.042 305.673 186.817 304.932 186.585C302.763 185.93 300.593 185.397 298.374 184.938C288.438 182.886 278.67 179.978 268.999 176.931C262.347 174.869 255.656 173.193 248.874 171.626C241.855 169.981 234.961 168.169 228.093 165.966C222.12 164.103 216.051 162.586 209.999 161.001C207.749 160.398 205.499 159.793 203.249 159.188C198.331 157.872 193.406 156.591 188.472 155.333C187.295 155.032 186.119 154.731 184.907 154.42C182.57 153.823 180.232 153.228 177.893 152.638C171.384 150.971 165.023 149.087 158.681 146.863C155.279 145.769 151.87 145.086 148.351 144.493C145.999 144.001 145.999 144.001 143.275 143.085C139.952 141.985 136.621 141.056 133.238 140.161C132.606 139.993 131.975 139.826 131.325 139.653C129.321 139.121 127.316 138.592 125.312 138.063C100.744 131.56 100.744 131.56 92.9018 129.163C85.443 126.888 77.9686 124.992 70.3273 123.433C65.8556 122.501 61.6156 121.252 57.2983 119.764C53.4137 118.475 49.4605 117.463 45.4994 116.438C44.3141 116.126 44.3141 116.126 43.1049 115.808C38.4315 114.588 33.7458 113.471 29.0248 112.45C27.0064 112.003 25.0029 111.511 22.9994 111.001ZM344.999 121.001C344.339 122.321 343.679 123.641 342.999 125.001C344.319 124.341 345.639 123.681 346.999 123.001C346.339 122.341 345.679 121.681 344.999 121.001ZM362.999 138.001C359.699 141.301 356.399 144.601 352.999 148.001C353.989 148.496 353.989 148.496 354.999 149.001C357.943 147.549 357.943 147.549 361.124 145.563C362.22 144.905 363.316 144.246 364.445 143.567C365.288 143.05 366.131 142.534 366.999 142.001C365.679 140.681 364.359 139.361 362.999 138.001ZM332.999 153.001C332.999 153.991 332.999 154.981 332.999 156.001C333.659 155.011 334.319 154.021 334.999 153.001C334.339 153.001 333.679 153.001 332.999 153.001Z" fill="#292827"/>
<path d="M332.001 108C332.991 108.66 333.981 109.32 335.001 110C335.001 110.66 335.001 111.32 335.001 112C335.537 112.227 336.073 112.454 336.626 112.688C339.786 114.434 342.268 116.64 345.001 119C344.671 120.65 344.341 122.3 344.001 124C344.748 123.774 345.495 123.548 346.265 123.315C349.001 123 349.001 123 350.945 124.172C351.548 124.763 352.15 125.355 352.77 125.965C353.431 126.6 354.092 127.235 354.772 127.889C355.446 128.565 356.119 129.241 356.813 129.938C357.506 130.61 358.199 131.282 358.913 131.975C360.622 133.637 362.317 135.312 364.001 137C363.602 137.459 363.204 137.918 362.794 138.391C362.264 139.004 361.734 139.618 361.188 140.25C360.666 140.853 360.144 141.457 359.606 142.078C358.003 143.997 356.501 145.999 355.001 148C358.961 145.69 362.921 143.38 367.001 141C371.21 143.526 374.256 145.888 377.813 149.188C378.566 149.883 378.566 149.883 379.335 150.592C380.56 151.724 381.781 152.861 383.001 154C379.695 156.757 376.411 159.029 372.641 161.102C371.616 161.67 370.59 162.238 369.533 162.823C368.45 163.418 367.367 164.012 366.251 164.625C357.866 169.269 349.527 173.964 341.304 178.891C337.608 181.097 333.875 183.125 330.001 185C330.155 184.078 330.31 183.157 330.469 182.207C331.348 176.064 331.391 169.848 331.606 163.654C331.644 162.7 331.681 161.745 331.719 160.762C331.75 159.895 331.78 159.028 331.811 158.135C332.001 156 332.001 156 333.001 154C332.341 154 331.681 154 331.001 154C330.109 145.337 329.814 136.719 329.815 128.015C329.813 125.909 329.795 123.803 329.776 121.697C329.773 120.349 329.771 119.001 329.77 117.652C329.766 116.446 329.762 115.239 329.758 113.996C330.001 111 330.001 111 332.001 108Z" fill="#FF7900"/>
<path d="M46.1875 400.938C48.0747 400.969 48.0747 400.969 50 401.001C45.6923 404.939 45.6923 404.939 42.1875 405.251C41.1047 405.127 41.1047 405.127 40 405.001C39.67 404.011 39.34 403.021 39 402.001C41.7508 401.084 43.3595 400.892 46.1875 400.938Z" fill="#FF7900"/>
</g>
<defs>
<clipPath id="clip0_232_54">
<rect width="512" height="512" fill="white"/>
</clipPath>
</defs>
</svg>
