<svg width="512" height="512" viewBox="0 0 512 512" fill="none" xmlns="http://www.w3.org/2000/svg">
<g clip-path="url(#clip0_232_37)">
<path d="M7.99871 -0.5C9.29809 -0.515469 9.29809 -0.515469 10.6237 -0.53125C12.9987 0 12.9987 0 14.5507 1.6394C16.3144 4.51472 16.8739 6.99386 17.5417 10.3008C17.9384 12.2068 17.9384 12.2068 18.3432 14.1514C18.4799 14.8279 18.6165 15.5045 18.7574 16.2015C19.4965 19.8397 20.2799 23.4684 21.0612 27.0977C21.2215 27.8441 21.3818 28.5905 21.547 29.3596C34.7318 90.4018 58.273 150.259 89.9987 204C90.5514 204.943 91.1041 205.886 91.6735 206.857C103.178 226.414 115.804 245.284 129.999 263C130.5 263.63 131.001 264.259 131.517 264.908C137.652 272.609 143.873 280.166 150.585 287.375C152.462 289.416 154.271 291.484 156.073 293.59C160.465 298.626 165.182 303.333 169.914 308.046C171.434 309.56 172.948 311.079 174.462 312.6C179.801 317.943 185.234 323.113 190.999 328C191.963 328.846 192.927 329.691 193.921 330.562C253.074 381.546 324.249 412.497 399.999 429C399.621 427.755 399.243 426.51 398.854 425.227C394.917 412.069 391.279 398.836 387.761 385.561C387.252 383.644 386.741 381.727 386.226 379.811C385.496 377.088 384.777 374.363 384.061 371.637C383.838 370.81 383.614 369.982 383.384 369.13C381.884 363.343 381.884 363.343 382.999 360C383.628 360.641 384.257 361.281 384.905 361.941C390.1 367.191 395.328 372.27 400.999 377C401.537 377.452 402.075 377.904 402.63 378.37C412.715 386.812 423.137 394.59 433.999 402C434.718 402.494 435.437 402.987 436.178 403.496C453.516 415.365 471.562 425.942 489.999 436C490.964 436.528 491.928 437.055 492.923 437.599C499.277 441.073 505.636 444.54 511.999 448C510.999 450 510.999 450 508.883 450.787C507.948 451.042 507.013 451.296 506.049 451.559C504.989 451.856 503.929 452.153 502.837 452.46C501.674 452.782 500.51 453.105 499.311 453.438C455.165 466.147 410.686 484.661 372.844 510.885C370.999 512 370.999 512 368.999 512C370.588 506.795 372.762 501.991 375.069 497.078C375.469 496.219 375.869 495.36 376.281 494.476C377.559 491.732 378.841 488.991 380.124 486.25C381.795 482.673 383.464 479.095 385.132 475.516C385.539 474.642 385.946 473.767 386.366 472.867C390.349 464.291 394.193 455.656 397.999 447C397.238 446.84 396.477 446.681 395.693 446.516C351.844 437.214 309.994 423.629 270.041 403.048C267.91 401.954 265.769 400.88 263.628 399.805C229.227 382.333 198.411 358.946 169.999 333C169.054 332.148 168.109 331.296 167.135 330.418C157.911 322.074 148.822 313.522 140.757 304.035C138.646 301.592 136.446 299.241 134.249 296.875C129.01 291.123 124.236 285.08 119.492 278.917C117.982 276.979 116.442 275.068 114.893 273.16C93.5465 246.65 75.8214 217.064 59.9987 187C59.482 186.019 58.9652 185.037 58.4328 184.026C35.7949 140.68 18.9018 94.3455 7.06121 46.9375C6.87549 46.1945 6.68976 45.4515 6.49841 44.686C-2.4628 8.61336 -2.4628 8.61336 1.20965 1.73047C3.53922 -0.522804 4.79698 -0.538116 7.99871 -0.5Z" fill="#FF7900"/>
</g>
<defs>
<clipPath id="clip0_232_37">
<rect width="512" height="512" fill="white"/>
</clipPath>
</defs>
</svg>
