<svg width="100" height="30" viewBox="0 0 100 30" fill="none" xmlns="http://www.w3.org/2000/svg">
<path d="M0.961997 22.6982C1.52646 23.6807 2.38731 24.1411 3.4687 24.2628C7.34954 24.7056 18.9268 24.4639 18.9444 24.4639C21.691 24.4639 23.8961 23.2062 24.4923 20.6078C24.644 19.9463 24.764 17.7042 24.6263 15.3263C24.4817 12.8567 23.3563 11.225 19.9976 10.9956C15.5364 10.694 9.22642 10.8369 6.67388 11.0997C5.31029 11.2408 4.51647 12.1722 4.53412 13.4423C4.57471 16.4694 4.60826 16.9351 4.64 17.0991C5.99474 17.2932 5.9789 17.3056 6.01943 17.2314C6.13765 17.0145 6.30686 16.8295 6.51241 16.6924C6.71804 16.5553 6.95386 16.4703 7.19958 16.4447C7.77466 16.3688 7.34068 16.3918 19.3184 16.2101C19.7859 16.2101 20.0646 16.4218 20.151 16.8822C20.2504 17.4797 20.2688 18.0879 20.2057 18.6903C20.1669 19.2037 19.7436 20.0222 18.9709 20.0327C18.9533 20.0327 10.3907 20.0733 6.30519 19.8845C5.07042 19.8281 3.71742 18.6109 3.71742 16.3459C3.71742 15.3845 3.71742 12.2886 3.79854 11.3272C3.84186 10.7593 4.07363 10.222 4.45718 9.80077C4.84066 9.37955 5.35388 9.09853 5.91536 9.00228C7.43952 8.7253 21.6416 8.89291 22.5431 9.0993C25.1062 9.68498 25.3214 12.7561 25.3302 12.8214C25.5701 14.5854 25.5931 16.5752 25.5719 18.3728C25.519 22.43 24.0037 23.3209 23.4974 23.9065C23.3457 24.0829 23.5415 24.1641 23.8414 24.3811C25.115 24.1429 26.9373 22.7493 27.2936 19.7946C27.4312 18.6533 27.537 16.0407 27.3165 11.3537C27.1736 8.31078 25.8947 5.68944 21.654 5.20609C17.976 4.78802 9.87558 5.12143 6.23816 5.20609C-0.1123 5.35075 0.00765329 8.97584 0.00588863 10.4523C-0.0188026 19.7999 -0.00998635 21.01 0.961997 22.6982Z" fill="black"/>
<path d="M44.8415 10.569C45.0359 10.5613 45.2272 10.6191 45.3848 10.7331C45.5296 10.8464 45.6416 10.9962 45.7094 11.1671L48.8846 18.9641H46.3709C46.2951 18.9482 46.2545 18.8758 46.221 18.7488L45.7959 17.4064C45.7782 17.2618 45.6988 17.23 45.5189 17.23H43.0369C42.8605 17.23 42.7776 17.2635 42.76 17.4064L42.3348 18.7559C42.3031 18.8829 42.2625 18.9552 42.1849 18.9711H39.6641L42.8482 11.1741C42.902 11.0412 42.9831 10.921 43.0863 10.8213C43.2594 10.662 43.4879 10.5766 43.7231 10.5831L44.8415 10.569ZM43.4162 15.4537H45.1397L44.277 12.954L43.4162 15.4537Z" fill="black"/>
<path d="M36.5655 16.9736C36.7877 16.9736 36.8407 16.9083 36.8336 16.6966V15.4019C36.8336 15.0826 36.6784 14.9062 36.405 14.7579C36.3309 14.7192 36.0169 14.4987 36.218 14.4987H38.7775C38.9892 14.4987 39.0563 14.5481 39.0545 14.7685V17.7674C39.0545 18.3742 38.6382 18.9634 37.9556 18.9634H33.609C33.1697 18.9634 31.3281 18.69 31.3281 16.5202V13.0186C31.3281 10.8489 33.1697 10.5649 33.609 10.5684H38.7846C39.0069 10.5684 39.058 10.6372 39.0545 10.8489V12.179C39.0545 12.3907 39.0069 12.4559 38.7846 12.4559H34.9356C34.0852 12.4559 33.6654 12.9022 33.6654 13.4543V15.9751C33.6654 16.5255 34.0852 16.9736 34.9356 16.9736C35.0167 16.9736 34.8385 16.9683 36.5655 16.9736Z" fill="black"/>
<path d="M80.5839 16.9736C79.7357 16.9736 79.3158 16.5255 79.3158 15.9751V13.4543C79.3158 12.9022 79.7357 12.4559 80.5859 12.4559H81.6636C82.5117 12.4559 82.9316 12.9022 82.9316 13.4543V15.9751C82.9316 16.5255 82.5138 16.9736 81.6636 16.9736H80.5839ZM82.9881 18.9634C83.4296 18.9634 85.271 18.69 85.271 16.5202V13.0186C85.271 10.8489 83.4296 10.5649 82.9902 10.5684H79.2593C78.8185 10.5684 76.9785 10.8489 76.9785 13.0186V16.5238C76.9785 18.6935 78.8185 18.9704 79.2593 18.967L82.9881 18.9634Z" fill="black"/>
<path d="M55.1731 18.9016L58.0838 13.9536V18.6987C58.0838 18.8276 58.0838 18.9634 58.3272 18.9634H60.2147C60.3911 18.9634 60.4582 18.9087 60.4582 18.704C60.4582 14.6468 60.4793 15.8975 60.4582 11.7697C60.4582 11.1628 60.0418 10.5684 59.3592 10.5684H58.4612C58.3418 10.5554 58.221 10.5749 58.1117 10.6249C58.0024 10.6749 57.9086 10.7535 57.8403 10.8524C55.032 15.1725 55.2172 14.9467 55.0655 14.9802C54.9138 14.9467 55.1008 15.176 52.2907 10.8524C52.2225 10.7535 52.1287 10.6749 52.0194 10.6249C51.9101 10.5749 51.7892 10.5554 51.6698 10.5684H50.7631C50.0787 10.5684 49.6676 11.1628 49.6641 11.7697V18.704C49.6641 18.9087 49.724 18.9634 49.9076 18.9634H51.795C51.9714 18.9634 52.0385 18.9087 52.0385 18.704V13.9536L54.9491 18.9016C54.959 18.923 54.9748 18.941 54.9946 18.9537C55.0145 18.9664 55.0376 18.9731 55.0611 18.9731C55.0847 18.9731 55.1077 18.9664 55.1276 18.9537C55.1474 18.941 55.1632 18.923 55.1731 18.9016Z" fill="black"/>
<path d="M75.9029 17.1428C75.8415 17.0967 75.7648 17.0759 75.6881 17.0847H73.0209C72.9867 17.0847 72.9539 17.078 72.9225 17.065C72.8911 17.052 72.8632 17.0331 72.8395 17.0091C72.8158 16.9851 72.797 16.9568 72.7837 16.9255C72.7712 16.8943 72.7649 16.8609 72.7649 16.8271V10.8418C72.7649 10.7112 72.7649 10.5684 72.5215 10.5684H70.634C70.4576 10.5684 70.3906 10.6301 70.3906 10.8347V17.7691C70.3906 18.3777 70.8049 18.9634 71.4899 18.9634H76.7817C76.3681 18.4224 76.0696 17.803 75.9029 17.1428Z" fill="black"/>
<path d="M99.9775 12.1666C99.5541 10.7854 98.1801 10.5649 97.8083 10.5684H87.6598C86.9769 10.5684 86.5675 11.1629 86.5605 11.7698V18.7041C86.5605 18.9087 86.6205 18.9634 86.804 18.9634H88.5679C88.7444 18.9634 88.8113 18.9087 88.8113 18.7041V15.9134C88.8113 15.8451 88.8385 15.7796 88.8867 15.7313C88.9355 15.683 89.0004 15.6559 89.0687 15.6559H91.0956C91.3181 15.6559 91.3656 15.5941 91.3656 15.3789V14.16C91.3656 13.9447 91.3181 13.883 91.0956 13.883H89.0673C89.0332 13.8832 89.0004 13.8768 88.969 13.864C88.9376 13.8514 88.909 13.8325 88.8853 13.8087C88.8616 13.785 88.842 13.7567 88.8295 13.7255C88.8162 13.6944 88.81 13.661 88.81 13.6272V12.7117C88.81 12.678 88.8162 12.6446 88.8295 12.6134C88.842 12.5823 88.8616 12.554 88.8853 12.5302C88.909 12.5065 88.9376 12.4876 88.969 12.4749C89.0004 12.4622 89.0332 12.4557 89.0673 12.456H94.0418V18.7041C94.0418 18.9087 94.1018 18.9634 94.2832 18.9634H96.1727C96.3491 18.9634 96.4161 18.9087 96.4161 18.7041V12.456H99.7111C99.9336 12.456 100.05 12.403 99.9775 12.1666Z" fill="black"/>
<path d="M68.5273 15.379C68.5273 15.5943 68.4791 15.6577 68.2573 15.656H64.3249C64.2572 15.6565 64.1916 15.6838 64.1434 15.732C64.0952 15.7802 64.068 15.8454 64.0675 15.9136V16.8273C64.0675 16.8957 64.0946 16.9612 64.143 17.0094C64.1909 17.0578 64.2565 17.0849 64.3249 17.0849H68.7351C68.9576 17.0849 69.005 17.1572 69.005 17.3618V18.6919C69.005 18.9036 68.9576 18.9653 68.7372 18.9636H62.9156C62.2329 18.9636 61.8237 18.3779 61.8184 17.7693V11.7716C61.8184 11.1648 62.2329 10.5703 62.9174 10.5703H68.7386C68.959 10.5703 69.012 10.6392 69.0085 10.8508V12.1809C69.0085 12.3855 68.9611 12.4579 68.7407 12.4579H64.3249C64.2572 12.4579 64.1916 12.4847 64.1436 12.5326C64.0953 12.5806 64.068 12.6456 64.0675 12.7136V13.6292C64.068 13.6972 64.0953 13.7622 64.1436 13.8101C64.1916 13.858 64.2572 13.8849 64.3249 13.8849H68.2573C68.4791 13.8849 68.5273 13.9467 68.5273 14.1619V15.379Z" fill="black"/>
</svg>
