<svg width="234" height="236" viewBox="0 0 234 236" fill="none" xmlns="http://www.w3.org/2000/svg">
<g clip-path="url(#clip0_216_91)">
<g clip-path="url(#clip1_216_91)">
<path fill-rule="evenodd" clip-rule="evenodd" d="M213.381 225.286C221.809 225.125 228.762 218.172 228.912 209.755L232.091 31.2866C232.391 14.43 218.961 1.00016 202.105 1.30015L22.3249 4.4862C13.9828 4.64537 7.06248 11.4542 6.79536 19.7983C6.51413 28.3259 13.2674 35.1669 21.7818 35.0261L186.302 32.0906C194.741 31.9404 201.451 38.65 201.301 47.089L198.393 210.298C198.232 218.726 204.942 225.436 213.381 225.286Z" fill="#FF9E00"/>
</g>
</g>
<defs>
<clipPath id="clip0_216_91">
<rect width="234" height="236" fill="white" transform="matrix(-1 0 0 -1 234 236)"/>
</clipPath>
<clipPath id="clip1_216_91">
<rect width="300" height="300" fill="white" transform="translate(377 67.8672) rotate(135)"/>
</clipPath>
</defs>
</svg>
