<svg width="800" height="800" viewBox="0 0 800 800" fill="none" xmlns="http://www.w3.org/2000/svg">
<g clip-path="url(#clip0_208_77)">
<path d="M205.916 251.666C235.601 251.666 259.666 227.601 259.666 197.916C259.666 168.231 235.601 144.166 205.916 144.166C176.231 144.166 152.166 168.231 152.166 197.916C152.166 227.601 176.231 251.666 205.916 251.666Z" fill="#FF7900"/>
<path d="M152.166 323.333C152.166 303.543 168.209 287.5 187.999 287.5H223.833C243.623 287.5 259.666 303.543 259.666 323.333V610C259.666 629.791 243.623 645.833 223.833 645.833H187.999C168.209 645.833 152.166 629.791 152.166 610V323.333Z" fill="#FF7900"/>
<path d="M367.167 645.833H403.001C422.791 645.833 438.834 629.791 438.834 610V448.75C438.834 395 546.334 359.167 546.334 430.833V610.014C546.334 629.805 562.377 645.833 582.167 645.833H618.001C637.791 645.833 653.834 629.791 653.834 610V395C653.834 323.333 600.084 287.5 528.417 287.5C456.751 287.5 438.834 341.25 438.834 341.25V323.333C438.834 303.543 422.791 287.5 403.001 287.5H367.167C347.377 287.5 331.334 303.543 331.334 323.333V610C331.334 629.791 347.377 645.833 367.167 645.833Z" fill="#FF7900"/>
<path fill-rule="evenodd" clip-rule="evenodd" d="M689.667 0.833984C749.039 0.833984 797.167 48.9635 797.167 108.334V681.667C797.167 741.039 749.039 789.167 689.667 789.167H116.334C56.9635 789.167 8.83398 741.039 8.83398 681.667V108.334C8.83398 48.9635 56.9635 0.833984 116.334 0.833984H689.667ZM689.667 72.5006C709.458 72.5006 725.501 88.5439 725.501 108.334V681.667C725.501 701.458 709.458 717.501 689.667 717.501H116.334C96.5439 717.501 80.5006 701.458 80.5006 681.667V108.334C80.5006 88.5439 96.5439 72.5006 116.334 72.5006H689.667Z" fill="#FF7900"/>
</g>
<defs>
<clipPath id="clip0_208_77">
<rect width="800" height="800" fill="white"/>
</clipPath>
</defs>
</svg>
