<svg width="800" height="800" viewBox="0 0 800 800" fill="none" xmlns="http://www.w3.org/2000/svg">
<g clip-path="url(#clip0_207_70)">
<path d="M445.834 262.501L537.501 537.501L629.167 262.501M308.334 537.501C265.623 537.501 244.267 537.501 227.421 530.525C204.961 521.221 187.115 503.373 177.812 480.915C170.834 464.066 170.834 442.713 170.834 400.001C170.834 357.289 170.834 335.935 177.812 319.086C187.115 296.627 204.961 278.782 227.421 269.478C244.267 262.501 265.623 262.501 308.334 262.501M180.001 766.667H620.001C671.338 766.667 697.01 766.667 716.617 756.676C733.864 747.889 747.889 733.864 756.676 716.617C766.667 697.01 766.667 671.338 766.667 620.001V180.001C766.667 128.663 766.667 102.993 756.676 83.3849C747.889 66.1364 733.864 52.1133 716.617 43.3252C697.01 33.334 671.338 33.334 620.001 33.334H180.001C128.663 33.334 102.993 33.334 83.3849 43.3252C66.1364 52.1133 52.1133 66.1364 43.3252 83.3849C33.334 102.993 33.334 128.662 33.334 180.001V620.001C33.334 671.338 33.334 697.01 43.3252 716.617C52.1133 733.864 66.1364 747.889 83.3849 756.676C102.993 766.667 128.662 766.667 180.001 766.667Z" stroke="#ff7900" stroke-width="66.6667" stroke-linecap="round" stroke-linejoin="round"/>
</g>
<defs>
<clipPath id="clip0_207_70">
<rect width="800" height="800" fill="white"/>
</clipPath>
</defs>
</svg>
