<svg width="1100" height="800" viewBox="0 0 1100 800" fill="none" xmlns="http://www.w3.org/2000/svg">
<g clip-path="url(#clip0_207_71)">
<path fill-rule="evenodd" clip-rule="evenodd" d="M950 0C1032.85 0 1100 67.1575 1100 150V650C1100 732.845 1032.85 800 950 800H150C67.1575 800 0 732.845 0 650V150C0 67.1575 67.1575 0 150 0H950ZM912.645 100H187.359L519.02 361.835C537.185 376.18 562.815 376.18 580.985 361.835L912.645 100ZM100 158.44V650C100 677.615 122.386 700 150 700H950C977.615 700 1000 677.615 1000 650V158.441L642.945 440.325C588.45 483.35 511.55 483.35 457.055 440.325L100 158.44Z" fill="#ff7900"/>
</g>
<defs>
<clipPath id="clip0_207_71">
<rect width="1100" height="800" fill="white"/>
</clipPath>
</defs>
</svg>
