<svg width="100" height="30" viewBox="0 0 100 30" fill="none" xmlns="http://www.w3.org/2000/svg">
<g clip-path="url(#clip0_205_47)">
<mask id="mask0_205_47" style="mask-type:luminance" maskUnits="userSpaceOnUse" x="0" y="3" width="100" height="24">
<path d="M100 3H0V27H100V3Z" fill="white"/>
</mask>
<g mask="url(#mask0_205_47)">
<path d="M30.1478 15.4058L36.4985 6.99023H39.7389L34.5453 13.8284L39.8026 23.011H36.6259L32.7407 16.1945L30.1452 19.5906V23.0083H27.3984V6.99023H30.1452V15.4058H30.1478Z" fill="black"/>
<path d="M40.6862 19.9214C40.6862 17.9266 42.1034 16.6772 44.614 16.4793L47.7906 16.2381V15.9969C47.7906 14.5279 46.9334 13.937 45.6012 13.937C44.0566 13.937 43.1968 14.5956 43.1968 15.734H40.9649C40.9649 13.3895 42.8544 11.8555 45.7286 11.8555C48.6027 11.8555 50.341 13.4329 50.341 16.4359V23.0112H48.0454L47.8517 21.4121C47.4005 22.5288 45.9621 23.2958 44.3114 23.2958C42.0583 23.2958 40.6836 21.9596 40.6836 19.9214H40.6862ZM47.8119 18.6286V18.0594L45.6012 18.2356C43.9691 18.3901 43.3481 18.9376 43.3481 19.813C43.3481 20.7996 43.993 21.282 45.1713 21.282C46.7795 21.282 47.8119 20.2955 47.8119 18.6313V18.6286Z" fill="black"/>
<path d="M53.753 23.0108V14.419H51.7148V12.183H53.753V8.80859H56.3697V12.183H58.4291V14.419H56.3697V23.0108H53.753Z" fill="black"/>
<path d="M59.5299 19.9214C59.5299 17.9266 60.9471 16.6772 63.4576 16.4793L66.6343 16.2381V15.9969C66.6343 14.5279 65.7771 13.937 64.4449 13.937C62.9003 13.937 62.0405 14.5956 62.0405 15.734H59.8086C59.8086 13.3895 61.6981 11.8555 64.5723 11.8555C67.4464 11.8555 69.1847 13.4329 69.1847 16.4359V23.0112H66.8891L66.6953 21.4121C66.2442 22.5288 64.8058 23.2958 63.1551 23.2958C60.902 23.2958 59.5273 21.9596 59.5273 19.9214H59.5299ZM66.6555 18.6286V18.0594L64.4449 18.2356C62.8127 18.3901 62.1917 18.9376 62.1917 19.813C62.1917 20.7996 62.8366 21.282 64.0149 21.282C65.6232 21.282 66.6555 20.2955 66.6555 18.6313V18.6286Z" fill="black"/>
<path d="M71.8027 23.0105V6.70508H74.3982V23.0105H71.8027Z" fill="black"/>
<path d="M82.1894 11.8789C85.4722 11.8789 87.8554 14.2017 87.8554 17.576C87.8554 20.9504 85.4722 23.2732 82.1894 23.2732C78.9066 23.2732 76.5234 20.9504 76.5234 17.576C76.5234 14.2017 78.9066 11.8789 82.1894 11.8789ZM82.1894 20.8854C83.9914 20.8854 85.236 19.5492 85.236 17.576C85.236 15.6029 83.9914 14.2667 82.1894 14.2667C80.3874 14.2667 79.1428 15.6029 79.1428 17.576C79.1428 19.5492 80.3874 20.8854 82.1894 20.8854Z" fill="black"/>
<path d="M89.9355 23.0105V12.1854H92.3611L92.5761 13.5894C93.2422 12.4944 94.5293 11.8574 95.9677 11.8574C98.6296 11.8574 100.002 13.546 100.002 16.3512V23.0132H97.3849V16.9854C97.3849 15.1668 96.5038 14.2886 95.153 14.2886C93.5448 14.2886 92.5575 15.427 92.5575 17.1806V23.0105H89.9408H89.9355Z" fill="black"/>
<path d="M15.6682 19H7.83398V27.0009H15.6682V19Z" fill="#19D89F"/>
<path d="M7.83419 3L0 11.0009V19.0018H7.83419L15.6657 11.0009V3H7.83419Z" fill="black"/>
</g>
</g>
<defs>
<clipPath id="clip0_205_47">
<rect width="100" height="24" fill="white" transform="translate(0 3)"/>
</clipPath>
</defs>
</svg>
