<svg width="800" height="800" viewBox="0 0 800 800" fill="none" xmlns="http://www.w3.org/2000/svg">
<path d="M756.726 740.753H17.7353C4.25865 740.753 -5.70237 727.98 -2.18672 714.855L51.3684 511.299C53.7122 502.275 61.9154 495.947 71.2905 495.947H703.053C712.429 495.947 720.632 502.275 722.976 511.299L776.531 714.855C780.046 727.98 770.203 740.753 756.726 740.753ZM84.6499 689.308H689.811C703.288 689.308 713.249 676.534 709.733 663.409L683.249 562.862C680.905 553.838 672.702 547.51 663.327 547.51H111.017C101.642 547.51 93.4391 553.838 91.0953 562.862L64.6107 663.409C61.2122 676.417 71.0561 689.308 84.6499 689.308Z" fill="#333333"/>
<path d="M104.219 83.6797H671.174C685.354 83.6797 696.956 95.1641 696.956 109.461V483.173C696.956 497.353 685.471 508.955 671.174 508.955H104.219C90.0391 508.955 78.4375 497.47 78.4375 483.173V109.344C78.4375 95.1641 90.0391 83.6797 104.219 83.6797Z" fill="white"/>
<path d="M722.737 534.62H52.6562V109.346C52.6562 80.8692 75.7423 57.7832 104.219 57.7832H671.174C699.651 57.7832 722.737 80.8692 722.737 109.346V534.62ZM104.219 109.346V483.058H671.174V109.346H104.219Z" fill="#333333"/>
<path d="M467.897 538.331L519.072 532.045L539.486 698.249L488.311 704.535L467.897 538.331ZM235.945 698.412L256.359 532.208L307.535 538.494L287.121 704.698L235.945 698.412Z" fill="#333333"/>
<path d="M52.6562 586.182H735.628V637.744H52.6562V586.182Z" fill="#333333"/>
<path d="M211.446 160.908H563.948C594.768 160.908 619.612 185.869 619.612 216.572V388.603C619.612 419.423 594.651 444.267 563.948 444.267H211.446C180.625 444.267 155.781 419.306 155.781 388.603V216.689C155.781 185.869 180.742 160.908 211.446 160.908Z" fill="#FF7900"/>
<path d="M568.165 444.386H207.344C178.867 444.386 155.781 421.3 155.781 392.823V212.471C155.781 183.994 178.867 160.908 207.344 160.908H568.165C596.642 160.908 619.728 183.994 619.728 212.471V392.823C619.728 421.3 596.525 444.386 568.165 444.386ZM207.344 212.471V392.823H568.165V212.471H207.344Z" fill="#333333"/>
</svg>
